<svg width="1440" height="115" viewBox="0 0 1440 115" fill="none" xmlns="http://www.w3.org/2000/svg">
<g clip-path="url(#clip0_34_2466)">
<rect width="1440" height="115" fill="#11233D"/>
<rect width="335.923" height="1383.71" transform="matrix(0.892805 0.450444 -0.199458 0.979906 103.621 -574.87)" fill="#FFDF5E"/>
<rect width="309.638" height="1383.71" transform="matrix(0.892805 0.450444 -0.199458 0.979906 396.844 -449.203)" fill="#5AC0FF"/>
<rect width="307.919" height="1383.71" transform="matrix(0.892805 0.450444 -0.199458 0.979906 671.121 -344.623)" fill="#8E7DD4"/>
<rect width="298.505" height="1383.71" transform="matrix(0.892805 0.450444 -0.199458 0.979906 952.812 -237.923)" fill="#FF7D6A"/>
<rect width="369.295" height="1383.71" transform="matrix(0.892804 0.450446 -0.199457 0.979907 1221.3 -134.592)" fill="#97D375"/>
</g>
<path d="M1029.74 40.3398C1029.74 37.1313 1022.95 36.9976 1019.55 37.3318L1011.4 35.3265L1019.55 33.3212L1011.4 29.3105H1019.55C1019.55 29.3105 1031.02 30.2374 1034.83 35.3265C1037.08 38.315 1038.23 41.0083 1037.89 44.3505C1037.89 44.3505 1037.69 54.1766 1040.95 53.3745C1044.21 52.5723 1044.35 49.0296 1044.01 47.3585C1044.68 48.0269 1046.04 50.166 1046.04 53.3745C1046.04 57.3851 1045.02 59.3905 1037.89 64.4038C1030.76 69.4171 1035.85 71.4224 1035.85 71.4224C1035.85 71.4224 1042.31 70.0855 1045.02 69.4171C1043.33 70.754 1041.52 75.2903 1037.89 77.4384C1031.76 81.0758 1023.63 77.4384 1019.55 77.4384C1016.29 77.4384 1016.15 81.4491 1016.49 83.4544C1016.83 85.4597 1025.66 84.457 1025.66 84.457C1023.63 85.7939 1017.1 88.4677 1007.32 88.4677C995.095 88.4677 990 77.4384 990 65.4064C990 55.7809 1002.23 48.7248 1009.36 52.3718C1016.49 56.0188 1019.92 49.6944 1019.92 49.6944C1019.92 49.6944 1017.39 57.9161 1021.59 61.3958C1025.79 64.8755 1025.01 46.435 1022.61 44.3505C1019.55 41.6966 1023.63 44.3505 1025.66 47.3585C1027.7 50.3665 1029.74 44.3505 1029.74 40.3398Z" fill="#11233D"/>
<path d="M419 62.5141C419 52.5836 434.437 36.6079 445.463 29.2062C447.668 32.9071 445.463 40.3088 452.079 51.4115C457.996 61.3419 461.451 60.928 461.451 68.8585C461.451 76.7889 457.592 84.7194 438.847 84.7194C425.616 84.7194 419 73.6167 419 62.5141Z" fill="#11233D"/>
<path d="M138.383 29.2062C137.59 31.0458 136.719 34.9462 139.571 35.8292C143.137 36.933 145.514 38.0368 145.514 40.2443V45.1144C146.814 45.6637 148.044 46.349 149.186 47.1495C150.286 46.3253 151.537 44.9238 152.086 42.8292C153.119 38.8872 156.429 37.6857 158.038 37.8947C159.326 38.062 162.299 38.9917 163.625 39.4357C161.702 40.0011 158.141 41.8214 159.282 44.5782C160.709 48.0244 161.376 50.5572 159.676 51.9669L155.854 55.1349C156.571 56.6934 157.091 58.3603 157.385 60.1046C158.221 59.8397 159.097 59.4103 159.936 58.7413C163.123 56.1989 166.494 57.2132 167.659 58.3419C168.591 59.2453 170.418 61.7665 171.215 62.9142C169.335 62.2187 165.392 61.5509 164.656 64.4425C163.737 68.0568 162.756 70.4853 160.55 70.5997L156.236 70.8224C155.716 72.1178 155.063 73.3457 154.294 74.4894C155.168 75.5882 156.747 76.9098 159.088 77.3243C163.104 78.0357 164.568 81.2344 164.489 82.8536C164.426 84.149 163.739 87.1851 163.402 88.5411C162.683 86.6717 160.58 83.2729 157.921 84.631C154.598 86.3289 152.124 87.197 150.581 85.6173L146.396 81.3331C144.834 82.0846 143.159 82.6367 141.403 82.9601C141.631 83.7577 142.006 84.592 142.59 85.4054C144.967 88.7166 143.778 92.028 142.59 93.132C141.639 94.0149 139.025 95.7075 137.836 96.4435C138.628 94.6038 139.499 90.7038 136.647 89.8204C133.082 88.7166 130.704 87.613 130.704 85.4054V81.9972C129.011 81.3536 127.429 80.4867 125.994 79.4308C125.225 80.2556 124.509 81.3723 124.129 82.8214C123.096 86.7631 119.786 87.9638 118.177 87.755C116.889 87.5877 113.916 86.658 112.59 86.214C114.513 85.6484 118.074 83.8283 116.933 81.0714C115.506 77.6252 114.839 75.0924 116.539 73.6827L119.486 71.2394C118.761 69.5487 118.264 67.7375 118.034 65.8439C117.448 66.102 116.856 66.4491 116.28 66.9083C113.093 69.4511 109.722 68.4364 108.557 67.3077C107.625 66.4048 105.797 63.8834 105 62.7355C106.88 63.4309 110.824 64.0987 111.56 61.2072C112.479 57.5928 113.459 55.1641 115.666 55.0499L119.837 54.8331C120.399 53.6642 121.072 52.5589 121.843 51.5304C121.001 50.428 119.539 49.1534 117.36 48.6437C113.389 47.7151 112.101 44.441 112.268 42.8282C112.401 41.5381 113.254 38.5438 113.664 37.2081C114.28 39.114 116.195 42.623 118.924 41.4113C122.335 39.8967 124.852 39.1639 126.307 40.8253L130.056 45.1066C131.623 44.4465 133.293 43.9831 135.035 43.7433C134.88 42.6506 134.476 41.4252 133.628 40.2443C131.251 36.933 132.439 33.6216 133.628 32.5177C134.579 31.6346 137.194 29.942 138.383 29.2062Z" fill="#11233D"/>
<path fill-rule="evenodd" clip-rule="evenodd" d="M725.772 29.3564C758.993 30.9985 753.73 59.4884 753.73 65.8721C753.73 71.0333 744.41 72.3241 739.75 72.3242V88.4531H736.935L735.142 83.0752H732.991L731.198 88.4531H728.333L726.54 83.0752H724.39L722.598 88.4521H719.728L717.936 83.0752H715.785L713.993 88.4521H710.717V72.3223C706.057 72.3222 696.738 71.0314 696.738 65.8701C696.738 59.4856 691.475 30.9961 724.696 29.3545V29.3125C724.868 29.3178 725.038 29.3243 725.207 29.3311C725.394 29.3235 725.582 29.3165 725.772 29.3105V29.3564ZM725.754 61.9111C725.605 61.7344 725.332 61.7374 725.186 61.916C722.929 64.6674 717.939 69.7404 717.938 70.502V74.4727H732.992V70.502L725.754 61.9111ZM708.814 46.5146C704.136 47.5899 701.716 52.7514 703.437 56.1924C705.587 60.4934 707.738 60.4932 713.114 60.4932C717.415 60.4931 720.642 59.0596 721.717 58.3428C720.283 54.7585 717.039 47.5902 708.814 46.5146ZM741.594 46.5146C733.369 47.5899 730.124 54.7583 728.691 58.3428C729.766 59.0597 732.992 60.4932 737.293 60.4932C742.669 60.4932 744.819 60.4931 746.97 56.1924C748.69 52.7515 746.272 47.5901 741.594 46.5146Z" fill="#11233D"/>
<path fill-rule="evenodd" clip-rule="evenodd" d="M1313.32 30.1329C1314.83 30.6236 1318.83 32.0532 1318.24 33.2423C1319.33 33.6074 1322.18 34.1185 1324.81 33.2423C1328.1 32.1473 1332.48 34.3376 1333.57 37.6232C1334.45 40.2511 1333.94 42.3682 1333.57 43.0988C1335.03 42.3687 1338.61 42.0044 1341.24 46.3849C1343.87 50.7658 1341.6 53.3217 1340.14 54.0519C1340.51 54.4178 1341.9 56.4623 1344.53 61.7179C1347.81 68.2893 1335.76 70.4801 1330.29 67.1945L1324.81 63.9083L1318.24 72.67C1318.24 75.5907 1318.9 81.4327 1321.53 81.4327C1324.15 81.4327 1329.19 86.5432 1331.38 89.0988H1294.7C1296.89 86.5432 1301.93 81.4318 1304.56 81.4318C1307.19 81.4311 1307.84 75.5905 1307.84 72.67L1301.27 63.9083L1295.8 67.1945C1290.32 70.4797 1278.27 68.2891 1281.56 61.7179C1284.19 56.4608 1285.57 54.416 1285.94 54.0509C1284.48 53.3208 1282.22 50.7657 1284.84 46.3849C1287.47 42.004 1291.05 42.3686 1292.51 43.0988C1292.15 42.3685 1291.63 40.2515 1292.51 37.6232C1293.61 34.3375 1297.99 32.1471 1301.27 33.2423C1303.9 34.1184 1306.75 33.6074 1307.84 33.2423C1307.25 32.0534 1311.25 30.6237 1312.76 30.1329C1312.76 30.0164 1312.76 29.9562 1312.76 29.9562C1312.76 29.9562 1312.87 29.986 1313.04 30.0411C1313.22 29.9857 1313.32 29.9562 1313.32 29.9562C1313.32 29.9568 1313.32 30.0168 1313.32 30.1329Z" fill="#11233D"/>
<defs>
<clipPath id="clip0_34_2466">
<rect width="1440" height="115" fill="white"/>
</clipPath>
</defs>
</svg>
